<?xml version="1.0" encoding="utf-8"?>
<!-- Generator: Adobe Illustrator 18.0.0, SVG Export Plug-In . SVG Version: 6.00 Build 0)  -->
<!DOCTYPE svg PUBLIC "-//W3C//DTD SVG 1.1//EN" "http://www.w3.org/Graphics/SVG/1.1/DTD/svg11.dtd">
<svg version="1.1" id="Zadé" xmlns="http://www.w3.org/2000/svg" xmlns:xlink="http://www.w3.org/1999/xlink" x="0px" y="0px"
	 viewBox="0 0 604.1 550.9" enable-background="new 0 0 604.1 550.9" xml:space="preserve">
<g id="Za">
	<path d="M302.4,78.7c0,0,25.3,14.7,25.3,25.1S135.5,254.9,135.5,359.1c0,51.6,103.3,63.5,103.3,107.5s-102.3,83.8-110.8,83.8
		s-23.2-7.1-23.2-14.2s107.5-41.7,107.5-74.8c-0.5-21.8-103.7-42.6-103.7-115.6C108.5,254.9,302.4,92.3,302.4,78.7z"/>
	<path d="M31.3,158.2c5.2,0,9.9,2.4,15.2,2.4s158.5-81.9,256-81.9c0,0,25.8,16.6,25.8,26.1s-24.1,11.4-32.2,11.4
		c-124,0-248.3,95.6-269,95.6c-11.2,0-27-18.9-27-22.7C0,185.2,31.3,158.2,31.3,158.2z"/>
	<path d="M105.1,537.2c0-21.8,107-361.9,191.8-361.9c0,0,25.6,7.6,25.6,20.8c0,7.6-9.9,3.8-15.2,3.8c-44,0-168.6,249.1-168.6,319.7
		c0,0,4.7,31.3-9.9,31.3S105.1,543.8,105.1,537.2z"/>
	<path d="M297.1,175.8c51,0,63.6,158.1,33,158.1c0,0-19.2-25.6-13.1-25.6c21.7,0,2.9-121.8-15.3-121.8c0,0-10.7-1.8-10.7-6
		S297.1,175.8,297.1,175.8z"/>
	<path d="M270.8,376.5c3-3,1.8-6-4.3-6s-47.2-7.8-47.2-22.4s17.1-50.8,44.8-50.8c43.9,0,36.6,32.4,63.7,32.4c0,0,9.1,5.2,9.1-2.2
		s-13.5-19.5-17.8-19.5c-13.9,0-23.1-32.3-67.5-32.3c-19.6,0-57.3,22.2-57.3,53.8c0,33.5,40.1,49.4,52.1,49.4
		C246.5,378.8,267.3,380,270.8,376.5z"/>
</g>
<g id="dé">
	<path d="M460.7,235.8c0,0-11-106.9-76.1-109c-65.1-2.1-99.4,89.8-99.4,152.8s63.1,99.4,99.4,99.4c46.2,0,96.7-38.5,96.7-128.3
		S478.7,9.6,461.4,7.5S438,4.8,438,13.7s10.3,9.6,13,18.5c2.7,8.9,9.1,78,9.1,190.4c0,104.1-34.4,138.5-68.6,138.5
		S314,326.2,314,270s39.1-128.2,72.6-128.2s54.1,78.8,54.1,89.8s-2.1,11.7-2.1,16.4S460.7,252.5,460.7,235.8z"/>
	<path d="M444.1,0c-22.3,0-70.5,64.1-70.5,224.1c0,109.5,42.9,156.4,96.2,154.9c47.5,0,112.9-147.4,112.9-167.2s-11-19.2-18.2-19.2
		s-3.8,10.9-3.8,17.8c0,6.9-44.9,149.8-91.2,149.8s-64.7-81-64.7-117c0-65.6,10.8-219.5,56.6-218.5C479.4,24.7,463.3,0,444.1,0z"/>
	<path d="M554.9,189.5c-35,0-79.3,84.2-79.3,119.8c0,61.7,62.2,80.1,70.4,80.1s16.4-1.8,16.4-7.9c0-6.2-4.8-6-9.3-6
		s-51.7-32.3-51.7-66.2S541.9,205,558,205s22.7,3.3,22.7-3.4s-9.7-10.2-16.2-10.2S554.9,189.5,554.9,189.5z"/>
	<path d="M501.1,103c0-11,76.4-42,85.5-42c0,0,17.5,6,17.5,8.6s-81.2,37.5-81.2,42.5s-6.6,3.6-8.8,3.6
		C511.8,115.7,501.1,107.1,501.1,103z"/>
</g>
</svg>
